<svg width="230" height="230" viewBox="0 0 230 230" fill="none" xmlns="http://www.w3.org/2000/svg">
<circle cx="115" cy="115" r="115" fill="#E84A5F"/>
<path d="M111.44 95.8C111.44 100.333 109.84 104.253 106.64 107.56C103.44 110.813 98.7733 113.16 92.64 114.6C95.9467 115.507 98.4533 117 100.16 119.08C101.867 121.107 102.72 123.453 102.72 126.12C102.72 130.333 101.387 133.987 98.72 137.08C96.1067 140.173 92.2667 142.573 87.2 144.28C82.1333 145.933 76.0267 146.76 68.88 146.76C66.2133 146.76 64.08 146.68 62.48 146.52C62.4267 148.013 61.7867 149.133 60.56 149.88C59.3333 150.627 57.76 151 55.84 151C53.92 151 52.5867 150.573 51.84 149.72C51.1467 148.867 50.8533 147.613 50.96 145.96C51.44 138.493 52.3733 130.68 53.76 122.52C55.1467 114.307 56.9067 106.387 59.04 98.76C59.4133 97.4267 60.16 96.4933 61.28 95.96C62.4 95.4267 63.8667 95.16 65.68 95.16C68.9333 95.16 70.56 96.0667 70.56 97.88C70.56 98.6267 70.4 99.48 70.08 100.44C68.6933 104.6 67.3067 110.253 65.92 117.4C64.5333 124.493 63.5467 131.267 62.96 137.72C65.52 137.933 67.6 138.04 69.2 138.04C76.6667 138.04 82.1333 136.973 85.6 134.84C89.12 132.653 90.88 129.88 90.88 126.52C90.88 124.173 89.8667 122.2 87.84 120.6C85.8667 119 82.5333 118.12 77.84 117.96C76.7733 117.907 76.0267 117.64 75.6 117.16C75.1733 116.68 74.96 115.907 74.96 114.84C74.96 113.293 75.28 112.04 75.92 111.08C76.56 110.12 77.7333 109.613 79.44 109.56C83.2267 109.453 86.64 108.893 89.68 107.88C92.7733 106.867 95.2 105.453 96.96 103.64C98.72 101.773 99.6 99.6133 99.6 97.16C99.6 94.0667 98.08 91.64 95.04 89.88C92 88.0667 87.3333 87.16 81.04 87.16C75.3333 87.16 69.8133 87.9067 64.48 89.4C59.1467 90.84 54.6133 92.68 50.88 94.92C49.1733 95.9333 47.7333 96.44 46.56 96.44C45.6 96.44 44.8533 96.12 44.32 95.48C43.84 94.7867 43.6 93.9333 43.6 92.92C43.6 91.5867 43.8667 90.44 44.4 89.48C44.9867 88.52 46.3467 87.4267 48.48 86.2C52.96 83.64 58.2133 81.64 64.24 80.2C70.2667 78.76 76.4267 78.04 82.72 78.04C92.3733 78.04 99.5733 79.6667 104.32 82.92C109.067 86.1733 111.44 90.4667 111.44 95.8ZM191.212 129.16C191.905 129.16 192.439 129.48 192.812 130.12C193.239 130.76 193.452 131.64 193.452 132.76C193.452 134.84 192.945 136.493 191.932 137.72C189.372 140.813 186.785 143.213 184.172 144.92C181.559 146.573 178.465 147.4 174.892 147.4C170.945 147.4 167.719 146.253 165.212 143.96C162.705 141.613 160.359 137.987 158.172 133.08C156.572 129.56 155.239 126.947 154.172 125.24C153.159 123.48 152.145 122.253 151.132 121.56C150.119 120.813 148.839 120.36 147.292 120.2L146.412 126.12C145.292 133.747 143.105 139.24 139.852 142.6C136.652 145.96 132.225 147.64 126.572 147.64C122.892 147.64 119.612 146.76 116.732 145C113.905 143.187 111.932 140.893 110.812 138.12C110.439 137.16 110.252 136.12 110.252 135C110.252 133.4 110.625 132.013 111.372 130.84C112.119 129.667 113.079 129.08 114.252 129.08C114.945 129.08 115.532 129.267 116.012 129.64C116.492 129.96 116.945 130.547 117.372 131.4C119.025 134.493 120.465 136.653 121.692 137.88C122.972 139.107 124.545 139.72 126.412 139.72C128.545 139.72 130.359 138.76 131.852 136.84C133.399 134.867 134.492 131.853 135.132 127.8L136.252 120.2H134.972C133.745 120.2 132.785 119.853 132.092 119.16C131.399 118.467 131.052 117.507 131.052 116.28C131.052 114.893 131.399 113.8 132.092 113C132.839 112.147 133.745 111.72 134.812 111.72H137.452C137.825 109.107 138.092 107.293 138.252 106.28L140.732 88.28C139.345 88.12 138.039 88.04 136.812 88.04C132.279 88.04 128.839 88.84 126.492 90.44C124.145 91.9867 122.972 94.2267 122.972 97.16C122.972 98.4933 123.105 99.5867 123.372 100.44C123.692 101.24 124.092 102.147 124.572 103.16C124.785 103.587 124.892 104.067 124.892 104.6C124.892 105.773 124.332 106.813 123.212 107.72C122.145 108.573 120.945 109 119.612 109C117.905 109 116.652 108.253 115.852 106.76C114.252 103.933 113.452 100.893 113.452 97.64C113.452 94.28 114.359 91.2133 116.172 88.44C118.039 85.6667 120.839 83.4533 124.572 81.8C128.305 80.0933 132.919 79.24 138.412 79.24C140.812 79.24 142.999 79.3733 144.972 79.64C146.999 79.9067 149.212 80.4133 151.612 81.16C154.225 81.96 155.532 83.4533 155.532 85.64C155.532 88.5733 154.279 90.04 151.772 90.04L148.652 111.56C154.892 110.92 159.959 108.253 163.852 103.56C167.799 98.8133 171.079 92.3867 173.692 84.28C174.172 82.7867 174.972 81.64 176.092 80.84C177.265 80.04 178.732 79.64 180.492 79.64C181.985 79.64 183.132 79.9867 183.932 80.68C184.785 81.32 185.212 82.2533 185.212 83.48C185.212 83.8533 185.105 84.4667 184.892 85.32C182.225 94.12 178.412 101.107 173.452 106.28C168.492 111.453 163.079 114.893 157.212 116.6C159.239 117.08 160.892 117.8 162.172 118.76C163.505 119.72 164.625 120.92 165.532 122.36C166.439 123.747 167.479 125.693 168.652 128.2C170.305 131.72 171.852 134.227 173.292 135.72C174.732 137.16 176.412 137.88 178.332 137.88C180.039 137.88 181.665 137.32 183.212 136.2C184.759 135.027 186.705 133.053 189.052 130.28C189.692 129.533 190.412 129.16 191.212 129.16Z" fill="white"/>
</svg>
