<svg width="230" height="230" viewBox="0 0 230 230" fill="none" xmlns="http://www.w3.org/2000/svg">
<circle cx="115" cy="115" r="115" fill="#FF3860"/>
<path d="M107.8 94C107.8 99.6667 105.8 104.567 101.8 108.7C97.8 112.767 91.9667 115.7 84.3 117.5C88.4333 118.633 91.5667 120.5 93.7 123.1C95.8333 125.633 96.9 128.567 96.9 131.9C96.9 137.167 95.2333 141.733 91.9 145.6C88.6333 149.467 83.8333 152.467 77.5 154.6C71.1667 156.667 63.5333 157.7 54.6 157.7C51.2667 157.7 48.6 157.6 46.6 157.4C46.5333 159.267 45.7333 160.667 44.2 161.6C42.6667 162.533 40.7 163 38.3 163C35.9 163 34.2333 162.467 33.3 161.4C32.4333 160.333 32.0667 158.767 32.2 156.7C32.8 147.367 33.9667 137.6 35.7 127.4C37.4333 117.133 39.6333 107.233 42.3 97.7C42.7667 96.0333 43.7 94.8667 45.1 94.2C46.5 93.5333 48.3333 93.2 50.6 93.2C54.6667 93.2 56.7 94.3333 56.7 96.6C56.7 97.5333 56.5 98.6 56.1 99.8C54.3667 105 52.6333 112.067 50.9 121C49.1667 129.867 47.9333 138.333 47.2 146.4C50.4 146.667 53 146.8 55 146.8C64.3333 146.8 71.1667 145.467 75.5 142.8C79.9 140.067 82.1 136.6 82.1 132.4C82.1 129.467 80.8333 127 78.3 125C75.8333 123 71.6667 121.9 65.8 121.7C64.4667 121.633 63.5333 121.3 63 120.7C62.4667 120.1 62.2 119.133 62.2 117.8C62.2 115.867 62.6 114.3 63.4 113.1C64.2 111.9 65.6667 111.267 67.8 111.2C72.5333 111.067 76.8 110.367 80.6 109.1C84.4667 107.833 87.5 106.067 89.7 103.8C91.9 101.467 93 98.7667 93 95.7C93 91.8333 91.1 88.8 87.3 86.6C83.5 84.3333 77.6667 83.2 69.8 83.2C62.6667 83.2 55.7667 84.1333 49.1 86C42.4333 87.8 36.7667 90.1 32.1 92.9C29.9667 94.1667 28.1667 94.8 26.7 94.8C25.5 94.8 24.5667 94.4 23.9 93.6C23.3 92.7333 23 91.6667 23 90.4C23 88.7333 23.3333 87.3 24 86.1C24.7333 84.9 26.4333 83.5333 29.1 82C34.7 78.8 41.2667 76.3 48.8 74.5C56.3333 72.7 64.0333 71.8 71.9 71.8C83.9667 71.8 92.9667 73.8333 98.9 77.9C104.833 81.9667 107.8 87.3333 107.8 94ZM207.515 135.7C208.382 135.7 209.048 136.1 209.515 136.9C210.048 137.7 210.315 138.8 210.315 140.2C210.315 142.8 209.682 144.867 208.415 146.4C205.215 150.267 201.982 153.267 198.715 155.4C195.448 157.467 191.582 158.5 187.115 158.5C182.182 158.5 178.148 157.067 175.015 154.2C171.882 151.267 168.948 146.733 166.215 140.6C164.215 136.2 162.548 132.933 161.215 130.8C159.948 128.6 158.682 127.067 157.415 126.2C156.148 125.267 154.548 124.7 152.615 124.5L151.515 131.9C150.115 141.433 147.382 148.3 143.315 152.5C139.315 156.7 133.782 158.8 126.715 158.8C122.115 158.8 118.015 157.7 114.415 155.5C110.882 153.233 108.415 150.367 107.015 146.9C106.548 145.7 106.315 144.4 106.315 143C106.315 141 106.782 139.267 107.715 137.8C108.648 136.333 109.848 135.6 111.315 135.6C112.182 135.6 112.915 135.833 113.515 136.3C114.115 136.7 114.682 137.433 115.215 138.5C117.282 142.367 119.082 145.067 120.615 146.6C122.215 148.133 124.182 148.9 126.515 148.9C129.182 148.9 131.448 147.7 133.315 145.3C135.248 142.833 136.615 139.067 137.415 134L138.815 124.5H137.215C135.682 124.5 134.482 124.067 133.615 123.2C132.748 122.333 132.315 121.133 132.315 119.6C132.315 117.867 132.748 116.5 133.615 115.5C134.548 114.433 135.682 113.9 137.015 113.9H140.315C140.782 110.633 141.115 108.367 141.315 107.1L144.415 84.6C142.682 84.4 141.048 84.3 139.515 84.3C133.848 84.3 129.548 85.3 126.615 87.3C123.682 89.2333 122.215 92.0333 122.215 95.7C122.215 97.3667 122.382 98.7333 122.715 99.8C123.115 100.8 123.615 101.933 124.215 103.2C124.482 103.733 124.615 104.333 124.615 105C124.615 106.467 123.915 107.767 122.515 108.9C121.182 109.967 119.682 110.5 118.015 110.5C115.882 110.5 114.315 109.567 113.315 107.7C111.315 104.167 110.315 100.367 110.315 96.3C110.315 92.1 111.448 88.2667 113.715 84.8C116.048 81.3333 119.548 78.5667 124.215 76.5C128.882 74.3667 134.648 73.3 141.515 73.3C144.515 73.3 147.248 73.4667 149.715 73.8C152.248 74.1333 155.015 74.7667 158.015 75.7C161.282 76.7 162.915 78.5667 162.915 81.3C162.915 84.9667 161.348 86.8 158.215 86.8L154.315 113.7C162.115 112.9 168.448 109.567 173.315 103.7C178.248 97.7667 182.348 89.7333 185.615 79.6C186.215 77.7333 187.215 76.3 188.615 75.3C190.082 74.3 191.915 73.8 194.115 73.8C195.982 73.8 197.415 74.2333 198.415 75.1C199.482 75.9 200.015 77.0667 200.015 78.6C200.015 79.0667 199.882 79.8333 199.615 80.9C196.282 91.9 191.515 100.633 185.315 107.1C179.115 113.567 172.348 117.867 165.015 120C167.548 120.6 169.615 121.5 171.215 122.7C172.882 123.9 174.282 125.4 175.415 127.2C176.548 128.933 177.848 131.367 179.315 134.5C181.382 138.9 183.315 142.033 185.115 143.9C186.915 145.7 189.015 146.6 191.415 146.6C193.548 146.6 195.582 145.9 197.515 144.5C199.448 143.033 201.882 140.567 204.815 137.1C205.615 136.167 206.515 135.7 207.515 135.7Z" fill="black"/>
</svg>
